#!OML:ASF E:/inclinewalkrobotboard/Project1/Captureday1/Session1/subject1.ASF
:FULLY-SPECIFIED
:DEGREES
188
root 0 0 0 76.3180852367426 -27.398443451050152 -45.462123714991975
lowerback -11.188296110725654 7.863014033885822 9.570413050575462
upperback -20.518045331812722 10.074213586314928 2.9605886458704016
thorax -15.457173030277495 3.9698417080104527 -1.7117215508200996
lowerneck -7.541893582714303 9.772306197949032 5.410846196498689
upperneck 11.708759959810576 11.68129951893831 7.288368402436976
head 4.804061098045404 6.267602971631282 2.07707454413575
rclavicle 6.0872495478181375E-15 -3.4262117126171918E-15
rhumerus 108.81997417478875 -24.957105028645792 -115.15989377919965
rradius 0.8560680847808761
rwrist 69.59962052888994
rhand 13.686042329379031 -12.576226765995441
rfingers 7.125020000000017
rthumb 38.68413858065283 -38.47567637015684
lclavicle -6.275247263568339E-16 1.5028727759368362E-15
lhumerus -0.23615402501600968 24.86296470292851 1.6706063696260145
lradius 9.337821230963659
lwrist -41.44488350268601
lhand 12.128003267539583 36.76234131992574
lfingers 7.125020000000047
lthumb 37.23375497108311 63.847092121506485
rfemur 183.1153765001219 -219.76778123890534 -192.0844559013853
rtibia 67.3567380571233
rfoot -22.92767710054729 -9.858139394654474
rtoes 49.843243161987104
lfemur -109.45089488566117 35.77048974737454 -24.123422473223066
ltibia 67.99915530069532
lfoot -38.31278612627259 35.592205922003046
ltoes 38.96193345518741
189
root 0 0 0 76.31731952679704 -27.40186988049652 -45.46095243887902
lowerback -11.188064981973966 7.863088411000902 9.56964586473148
upperback -20.517535323276977 10.07427053186265 2.960090792497458
thorax -15.456840689095845 3.9699189519691256 -1.7118209197091536
lowerneck -7.542795563398838 9.77244083864656 5.410967343229566
upperneck 11.708111359079147 11.681439467660889 7.288490529661157
head 4.803929847628709 6.267696459488873 2.07714574047258
rclavicle 6.0806218046298604E-15 -3.4281517998859173E-15
rhumerus 108.78679439891731 -24.956323161631737 -115.16535199161827
rradius 0.8354164889331024
rwrist 69.61794058072124
rhand 13.695711293341997 -12.582256775693692
rfingers 7.125020000000017
rthumb 38.69352996549523 -38.48045284224234
lclavicle -6.542410921438542E-16 1.4956921436728376E-15
lhumerus -0.15165883890489873 24.90877172142201 1.674353794959444
lradius 9.316820514583373
lwrist -41.44910260095199
lhand 12.12006212568017 36.7525171373585
lfingers 7.125020000000047
lthumb 37.22627593471413 63.83968428430539
rfemur 183.10581411330307 -219.75015491607786 -192.07356150784096
rtibia 67.36788934172256
rfoot -22.86578997793799 -9.902350773050344
rtoes 49.86155658678464
lfemur -109.44750051316194 35.768575200755535 -24.12794262056613
ltibia 68.0364718895264
lfoot -38.32028123715616 35.583234005227226
ltoes 38.949908223676076
190
root 0 0 0 76.31620792444588 -27.407766508866516 -45.45917451905137
lowerback -11.187879273142373 7.863135369032385 9.568508748674173
upperback -20.516447430502115 10.074307523859376 2.9591435882835104
thorax -15.455843209874459 3.9700040525740077 -1.712253338087665
lowerneck -7.544492251462778 9.772269572389492 5.411202611639658
upperneck 11.708877001808542 11.681005299262422 7.288298033556029
head 4.804460867103617 6.267550551652088 2.0771179003698803
rclavicle 6.072058702805409E-15 -3.4246263542316255E-15
rhumerus 108.76757148093309 -24.951300391826663 -115.16215480574667
rradius 0.8222647772138743
rwrist 69.63464878882519
rhand 13.708941638979503 -12.59084201393002
rfingers 7.125020000000017
rthumb 38.70620499219963 -38.48699084285963
lclavicle -6.759742518141579E-16 1.497187456631364E-15
lhumerus -0.11550936651789101 24.958973861913837 1.7024459663196154
lradius 9.29220195646014
lwrist -41.45811108723724
lhand 12.103022367181701 36.73993351053118
lfingers 7.125020000000047
lthumb 37.2101510923936 63.83106407360141
rfemur 183.09801371068875 -219.74059370042568 -192.06705383599953
rtibia 67.37182473239014
rfoot -22.841774090937538 -9.923852364635696
rtoes 49.87247302393223
lfemur -109.44829494081688 35.76495554708742 -24.135962668186615
ltibia 68.07510834618152
lfoot -38.328477636071874 35.57722889043483
ltoes 38.93656296381703
191
root 0 0 0 76.32061647573906 -27.384670116160066 -45.466456103158784
lowerback -11.188520871366777 7.862852478065248 9.573063206411529
upperback -20.51982673948968 10.074132070126861 2.9623158199507107
thorax -15.458658570486332 3.969629332503386 -1.7113764745935818
lowerneck -7.5387943113598075 9.771812194127042 5.410242913241553
upperneck 11.710023601353967 11.680875704962666 7.288035949995232
head 4.804146472627286 6.26728299236747 2.076859197356655
rclavicle 6.139241801228526E-15 -3.350409454626484E-15
rhumerus 108.83058797844743 -24.9508541208461 -115.13423408127666
rradius 0.8778206328191622
rwrist 69.58486410852109
rhand 13.684262339010875 -12.572454030903602
rfingers 7.125020000000017
rthumb 38.68204621294941 -38.471233699322944
lclavicle -5.729246361978083E-16 1.5756758877432884E-15
lhumerus -0.41459718708299853 24.81031399854959 1.6939204483156516
lradius 9.364431847871085
lwrist -41.451629270978486
lhand 12.130578039966748 36.769922797457525
lfingers 7.125020000000047
lthumb 37.23614061278116 63.853156330260084
rfemur 183.10871141025206 -219.78006390364112 -192.08490091997456
rtibia 67.33369421727706
rfoot -23.034435659706077 -9.80756257274967
rtoes 49.80730181109837
lfemur -109.4514951242104 35.773287468034596 -24.125777761667166
ltibia 67.94347343718584
lfoot -38.298180130974735 35.60907043250664
ltoes 38.97550019563571
192
root 0 0 0 76.3180850901364 -27.398035130049994 -45.46221711978171
lowerback -11.188155355606513 7.863020515206934 9.570437758498665
upperback -20.518071941956265 10.0742185926803 2.960605270730117
thorax -15.457280358041938 3.969841310660285 -1.7117160468576467
lowerneck -7.541872024407597 9.772341307805512 5.410829118989748
upperneck 11.708517593226267 11.681373112756551 7.288377864085559
head 4.803967168736425 6.267631873128617 2.077078644541917
rclavicle 6.0858376576769E-15 -3.4274347064405023E-15
rhumerus 108.83154435759963 -24.961000453110124 -115.16513682296369
rradius 0.856782897084603
rwrist 69.60124945587216
rhand 13.681903377930325 -12.57453089853267
rfingers 7.125020000000017
rthumb 38.68022467495467 -38.47479900772797
lclavicle -6.289757119044958E-16 1.5011811370455515E-15
lhumerus -0.22971084755169002 24.862749546272525 1.668393511472864
lradius 9.338439970179827
lwrist -41.44418370767288
lhand 12.127655556934656 36.762553686219846
lfingers 7.125020000000047
lthumb 37.233413554169175 63.847320730760785
rfemur 183.11752231843275 -219.76577481882822 -192.08289068526793
rtibia 67.36047928237768
rfoot -22.91235654101006 -9.863627997201194
rtoes 49.841118857680996
lfemur -109.44521758440314 35.769689683706176 -24.120791570354285
ltibia 67.99006090835226
lfoot -38.31872294396599 35.59230903188252
ltoes 38.96418981811041
193
root 0 0 0 76.31729564134832 -27.401669768653413 -45.46100327804226
lowerback -11.187931017651762 7.863094916490425 9.56964657913212
upperback -20.517525482110614 10.074275743710709 2.9600798345032304
thorax -15.456905524023258 3.9699197700591213 -1.711833765838504
lowerneck -7.542825010108912 9.772464727092734 5.410959860827451
upperneck 11.707935872265072 11.681487687344223 7.288489861383036
head 4.803869047213539 6.267715941820767 2.077147147693396
rclavicle 6.079401638537753E-15 -3.4290845318371964E-15
rhumerus 108.79671407403742 -24.959675784025492 -115.16926186428407
rradius 0.8362259202399152
rwrist 69.61903744183365
rhand 13.692345359344099 -12.580908262844927
rfingers 7.125020000000017
rthumb 38.690346014251205 -38.479772423717165
lclavicle -6.5539888551968E-16 1.4944051764848102E-15
lhumerus -0.14692579451458698 24.909153447288148 1.6732048790204175
lradius 9.317058340293595
lwrist -41.44872254156138
lhand 12.119379304471572 36.75248492458323
lfingers 7.125020000000047
lthumb 37.22561751097552 63.83973744447118
rfemur 183.10787640210367 -219.74836795451176 -192.07203416587055
rtibia 67.37150773177746
rfoot -22.85168877035508 -9.907362380879542
rtoes 49.85914106178909
lfemur -109.44238333419426 35.767828369119314 -24.125738398323037
ltibia 68.0287354303669
lfoot -38.32578778316321 35.583302522539086
ltoes 38.95180318473711
194
root 0 0 0 76.31617163774933 -27.407703494546286 -45.459198056572376
lowerback -11.187756232824906 7.863141592214966 9.568495472899471
upperback -20.516416123220544 10.074312626803103 2.9591166767847943
thorax -15.45587911565261 3.9700055198317266 -1.7122767264702814
lowerneck -7.544550967254051 9.772285704952964 5.4112014227990635
upperneck 11.708750614335262 11.681036016695465 7.288291468497869
head 4.804423101897472 6.267563510243536 2.0771176716349897
rclavicle 6.071025417325383E-15 -3.4253378926970943E-15
rhumerus 108.77589884284399 -24.95411257302555 -115.1649525818518
rradius 0.8231308110562416
rwrist 69.63527126222878
rhand 13.70626093072315 -12.58979006709953
rfingers 7.125020000000017
rthumb 38.70366792069872 -38.48647210363722
lclavicle -6.76868837961903E-16 1.4962126268546124E-15
lhumerus -0.11211028239952725 24.95962886718543 1.7019710167879154
lradius 9.292229875099842
lwrist -41.457929881539684
lhand 12.102194984583106 36.739771659218334
lfingers 7.125020000000047
lthumb 37.20935660191179 63.831019681727895
rfemur 183.09994390197738 -219.73903092907378 -192.06562087414588
rtibia 67.37520048461826
rfoot -22.82908002320549 -9.928322606260192
rtoes 49.86995643220958
lfemur -109.44374346109984 35.764280224791726 -24.134104084454897
ltibia 68.06852660610863
lfoot -38.33347341657497 35.57727021560876
ltoes 38.938162025517414
195
root 0 0 0 76.31528706340015 -27.41270701642079 -45.45777164617578
lowerback -11.187725734134741 7.863157295557656 9.567632846097629
upperback -20.515475411449966 10.074325549652741 2.958336863527328
thorax -15.454922806303781 3.970062132855529 -1.712684201515028
lowerneck -7.545935831748109 9.772049761720238 5.4114135103617835
upperneck 11.709927428217682 11.680508637534492 7.288054081335288
head 4.805069838927733 6.267368811467631 2.077063137942275
rclavicle 6.069416844264966E-15 -3.4211378324569947E-15
rhumerus 108.75065799770026 -24.94756500653758 -115.15137069542374
rradius 0.8158829721677741
rwrist 69.64214944832415
rhand 13.71977833217839 -12.597291424987551
rfingers 7.125020000000017
rthumb 38.716552180779644 -38.491654321153185
lclavicle -6.842668198650179E-16 1.5003392286093015E-15
lhumerus -0.11023799651753485 24.996259995198876 1.7301839235469743
lradius 9.273471661119572
lwrist -41.46730395232183
lhand 12.087747044033186 36.7292873101454
lfingers 7.125020000000047
lthumb 37.19568037150731 63.82373408031305
rfemur 183.09387467316816 -219.73591215243752 -192.06249073378638
rtibia 67.37638075850083
rfoot -22.82839025785844 -9.936360982898425
rtoes 49.874792188587854
lfemur -109.45232801777391 35.76300112689696 -24.14446826946942
ltibia 68.1055193697082
lfoot -38.33046942685273 35.57435833757661
ltoes 38.9266118628774
